<?xml version="1.0" standalone="no"?>
<!DOCTYPE svg PUBLIC "-//W3C//DTD SVG 20010904//EN"
 "http://www.w3.org/TR/2001/REC-SVG-20010904/DTD/svg10.dtd">
<svg version="1.0" xmlns="http://www.w3.org/2000/svg"
 width="928.000000pt" height="928.000000pt" viewBox="0 0 928.000000 928.000000"
 preserveAspectRatio="xMidYMid meet">
<metadata>
Created by potrace 1.14, written by Peter Selinger 2001-2017
</metadata>
<g transform="translate(0.000000,928.000000) scale(0.100000,-0.100000)"
fill="#000000" stroke="none">
<path d="M7983 8608 c-17 -18 -212 -211 -433 -428 -547 -536 -668 -655 -1062
-1042 -186 -183 -428 -420 -536 -526 -108 -106 -361 -354 -561 -550 -429 -422
-656 -645 -779 -765 l-89 -87 -145 142 c-309 303 -850 833 -1008 988 -91 88
-295 288 -453 443 -158 155 -370 362 -470 460 -181 178 -620 607 -997 977
-110 107 -247 241 -305 298 -58 57 -110 102 -115 100 -10 -3 -347 -331 -785
-763 l-213 -210 26 -55 c26 -55 62 -132 137 -295 20 -44 47 -101 60 -127 13
-25 21 -49 18 -52 -4 -3 -1 -6 5 -6 7 0 12 -4 12 -10 0 -9 25 -65 92 -207 17
-38 31 -71 30 -75 -1 -5 2 -8 8 -8 5 0 10 -5 10 -12 0 -12 7 -27 71 -163 18
-38 34 -72 34 -75 1 -3 16 -36 34 -75 47 -100 99 -212 176 -380 18 -38 33 -74
34 -80 1 -5 8 -19 15 -30 7 -11 32 -63 56 -115 24 -52 65 -142 92 -198 26 -57
48 -105 48 -107 0 -1 24 -54 54 -116 29 -63 66 -141 81 -174 15 -33 40 -87 55
-120 15 -33 43 -94 63 -135 19 -41 46 -101 61 -132 14 -32 38 -84 52 -115 15
-32 46 -100 70 -151 24 -51 44 -97 44 -103 0 -5 5 -9 10 -9 6 0 9 -3 8 -7 -2
-10 10 -38 57 -139 21 -44 51 -108 67 -144 16 -36 40 -87 53 -115 13 -27 37
-79 53 -115 67 -145 115 -247 132 -285 65 -138 120 -257 120 -260 0 -3 32 -70
70 -151 39 -80 70 -148 70 -150 0 -2 25 -56 55 -120 30 -64 55 -118 55 -119 0
-2 23 -52 51 -111 55 -117 72 -155 73 -166 1 -4 7 -13 14 -20 6 -6 12 -15 12
-20 0 -7 19 -50 93 -208 19 -41 38 -85 41 -98 4 -12 12 -22 17 -22 5 0 9 -6 9
-13 0 -8 6 -27 14 -43 8 -16 24 -51 36 -79 13 -27 43 -93 67 -145 48 -102 85
-182 88 -190 3 -9 55 -121 104 -224 26 -56 54 -118 61 -138 8 -21 18 -38 22
-38 4 0 8 -6 8 -14 0 -8 13 -39 30 -70 16 -31 29 -60 30 -64 0 -4 11 -29 24
-57 42 -87 90 -190 91 -195 1 -5 18 -42 88 -190 19 -41 48 -105 65 -142 17
-38 37 -68 44 -69 7 0 561 -1 1231 -1 1170 0 1219 1 1232 19 8 10 17 30 20 46
4 15 11 27 16 27 5 0 9 5 9 11 0 5 13 38 29 72 82 174 124 270 121 276 -1 2 2
7 7 10 10 7 63 124 63 139 0 6 4 12 8 14 4 1 20 32 36 68 33 76 58 130 154
335 38 83 80 173 93 200 13 28 24 52 24 55 4 12 57 126 66 140 5 8 12 22 15
30 3 8 17 40 31 70 47 102 204 444 234 508 92 198 128 279 128 289 -1 3 3 9 8
12 7 5 47 86 49 101 0 5 26 60 115 245 18 39 33 72 34 75 0 3 12 30 27 60 52
109 78 169 78 179 0 6 5 11 10 11 6 0 10 4 10 10 0 5 13 38 29 72 80 177 126
276 174 378 71 152 163 354 164 360 1 3 14 30 29 60 16 30 29 57 29 60 1 3 16
37 35 75 18 39 34 72 35 75 0 3 11 28 24 55 13 28 36 77 51 110 15 33 41 89
58 125 16 36 45 99 65 140 65 141 99 215 152 330 29 63 69 151 89 195 21 44
46 98 56 120 10 22 33 72 51 110 19 39 32 73 31 78 -1 4 2 7 8 7 5 0 10 5 10
11 0 5 11 34 24 62 13 29 40 88 60 132 54 117 60 129 71 137 5 4 7 8 3 8 -3 0
7 27 23 60 16 33 29 63 29 65 0 3 18 41 39 84 22 44 37 82 33 85 -3 3 0 6 6 6
7 0 12 4 12 10 0 5 20 53 45 106 25 53 45 97 45 99 0 2 29 65 65 140 36 76 65
138 65 140 0 2 33 74 120 260 16 33 43 92 60 130 18 39 43 94 56 122 l24 53
-222 219 c-123 121 -302 296 -398 391 -96 94 -220 216 -276 271 -56 54 -103
99 -106 99 -3 0 -18 -15 -35 -32z m-872 -2734 c-17 -30 -31 -62 -31 -70 0 -8
-3 -14 -8 -14 -4 0 -13 -15 -21 -32 -8 -18 -69 -144 -137 -280 -67 -137 -119
-248 -116 -248 4 0 2 -4 -3 -8 -12 -8 -175 -338 -175 -353 0 -5 -4 -9 -10 -9
-5 0 -9 -3 -8 -7 2 -8 -68 -153 -302 -625 -60 -120 -105 -218 -102 -218 4 0 3
-4 -3 -8 -9 -6 -50 -86 -176 -347 -24 -49 -48 -93 -52 -96 -5 -3 -8 -9 -7 -13
1 -4 -34 -80 -78 -169 -44 -89 -96 -193 -114 -232 -19 -38 -39 -79 -46 -90 -6
-11 -77 -155 -158 -320 -80 -165 -196 -401 -257 -525 -61 -124 -111 -227 -110
-230 0 -3 -8 -17 -18 -32 -10 -14 -19 -29 -19 -31 0 -3 -81 -171 -180 -372
-99 -201 -180 -370 -180 -376 0 -5 -4 -9 -10 -9 -5 0 -10 -5 -10 -11 0 -12
-148 -318 -163 -337 -6 -8 -13 -23 -14 -35 -2 -12 -7 -24 -11 -27 -11 -8 -66
-124 -64 -133 2 -5 -2 -6 -8 -2 -5 3 -10 15 -10 26 0 10 -4 19 -10 19 -5 0
-10 7 -10 15 0 9 -11 32 -24 53 -12 20 -23 39 -23 42 0 3 -42 91 -93 195 -52
105 -93 193 -92 198 1 4 -3 7 -8 7 -5 0 -9 3 -8 8 1 4 -13 36 -32 72 -19 36
-34 67 -35 70 0 3 -69 145 -154 315 -84 171 -206 418 -271 550 -277 562 -408
831 -414 853 -4 12 -12 22 -17 22 -5 0 -9 5 -9 11 0 6 -57 126 -127 267 -70
142 -127 259 -128 262 -1 5 -132 270 -358 728 -52 105 -93 192 -90 192 3 0 0
6 -6 14 -17 20 -61 108 -66 130 -3 10 -12 27 -21 37 -10 11 -14 19 -10 19 4 0
-2 13 -13 29 -12 16 -21 32 -21 36 0 4 -75 158 -167 344 -91 185 -167 338
-168 341 0 3 -40 85 -88 182 -48 98 -87 181 -88 185 0 5 -6 15 -13 23 -15 18
-28 50 -20 50 4 0 54 -47 113 -104 58 -58 176 -173 261 -256 85 -83 285 -278
443 -433 159 -155 346 -338 416 -407 71 -69 267 -261 437 -427 170 -166 379
-370 464 -453 85 -84 224 -219 308 -301 138 -136 154 -148 172 -137 11 7 20
18 20 25 0 7 4 13 10 13 5 0 77 66 159 148 282 279 632 617 641 620 6 2 10 10
10 18 0 8 4 14 8 14 4 0 99 89 209 198 111 108 342 335 515 503 172 169 372
365 444 435 72 71 152 148 178 172 25 23 46 44 46 46 0 2 34 37 76 77 42 41
122 118 177 172 55 53 102 97 104 97 2 0 -10 -25 -26 -56z"/>
</g>
</svg>
