<svg width="21" height="20" viewBox="0 0 21 20" fill="none" xmlns="http://www.w3.org/2000/svg">
<path d="M19.3335 19H2.9335C2.37344 19 2.09342 19 1.87951 18.891C1.69134 18.7951 1.53836 18.6422 1.44249 18.454C1.3335 18.2401 1.3335 17.9601 1.3335 17.4V1M19.3335 5L13.8992 10.4343C13.7012 10.6323 13.6022 10.7313 13.488 10.7684C13.3876 10.8011 13.2794 10.8011 13.179 10.7684C13.0648 10.7313 12.9658 10.6323 12.7678 10.4343L10.8992 8.56569C10.7012 8.36768 10.6022 8.26867 10.488 8.23158C10.3876 8.19895 10.2794 8.19895 10.179 8.23158C10.0648 8.26867 9.96582 8.36768 9.76781 8.56569L5.3335 13M19.3335 5H15.3335M19.3335 5V9" stroke="#492C7C" stroke-width="1.5" stroke-linecap="round" stroke-linejoin="round"/>
</svg>
