<svg width="23" height="22" viewBox="0 0 23 22" fill="none" xmlns="http://www.w3.org/2000/svg">
<path d="M11.6665 5V21M11.6665 5H8.13079C7.60983 5 7.1102 4.78929 6.74183 4.41421C6.37345 4.03914 6.1665 3.53043 6.1665 3C6.1665 2.46957 6.37345 1.96086 6.74183 1.58579C7.1102 1.21071 7.60983 1 8.13079 1C10.8808 1 11.6665 5 11.6665 5ZM11.6665 5H15.2022C15.7232 5 16.2228 4.78929 16.5912 4.41421C16.9596 4.03914 17.1665 3.53043 17.1665 3C17.1665 2.46957 16.9596 1.96086 16.5912 1.58579C16.2228 1.21071 15.7232 1 15.2022 1C12.4522 1 11.6665 5 11.6665 5ZM19.6665 10V17.8C19.6665 18.9201 19.6665 19.4802 19.4485 19.908C19.2568 20.2843 18.9508 20.5903 18.5745 20.782C18.1467 21 17.5866 21 16.4665 21L6.8665 21C5.7464 21 5.18635 21 4.75852 20.782C4.3822 20.5903 4.07624 20.2843 3.88449 19.908C3.6665 19.4802 3.6665 18.9201 3.6665 17.8V10M1.6665 6.6L1.6665 8.4C1.6665 8.96005 1.6665 9.24008 1.7755 9.45399C1.87137 9.64215 2.02435 9.79513 2.21251 9.89101C2.42643 10 2.70645 10 3.2665 10L20.0665 10C20.6266 10 20.9066 10 21.1205 9.89101C21.3087 9.79513 21.4616 9.64215 21.5575 9.45399C21.6665 9.24008 21.6665 8.96005 21.6665 8.4V6.6C21.6665 6.03995 21.6665 5.75992 21.5575 5.54601C21.4616 5.35785 21.3087 5.20487 21.1205 5.10899C20.9066 5 20.6266 5 20.0665 5L3.2665 5C2.70645 5 2.42643 5 2.21251 5.10899C2.02435 5.20487 1.87137 5.35785 1.7755 5.54601C1.6665 5.75992 1.6665 6.03995 1.6665 6.6Z" stroke="#492C7C" stroke-width="1.5" stroke-linecap="round" stroke-linejoin="round"/>
</svg>
