<svg width="33" height="32" viewBox="0 0 33 32" fill="none" xmlns="http://www.w3.org/2000/svg">
<rect x="2.6665" y="2" width="28" height="28" rx="6" fill="url(#paint0_radial_721_67965)"/>
<rect x="2.6665" y="2" width="28" height="28" rx="6" fill="url(#paint1_radial_721_67965)"/>
<rect x="2.6665" y="2" width="28" height="28" rx="6" fill="url(#paint2_radial_721_67965)"/>
<path d="M23.6665 10.5C23.6665 11.3284 22.9949 12 22.1665 12C21.3381 12 20.6665 11.3284 20.6665 10.5C20.6665 9.67157 21.3381 9 22.1665 9C22.9949 9 23.6665 9.67157 23.6665 10.5Z" fill="white"/>
<path fill-rule="evenodd" clip-rule="evenodd" d="M16.6665 21C19.4279 21 21.6665 18.7614 21.6665 16C21.6665 13.2386 19.4279 11 16.6665 11C13.9051 11 11.6665 13.2386 11.6665 16C11.6665 18.7614 13.9051 21 16.6665 21ZM16.6665 19C18.3234 19 19.6665 17.6569 19.6665 16C19.6665 14.3431 18.3234 13 16.6665 13C15.0096 13 13.6665 14.3431 13.6665 16C13.6665 17.6569 15.0096 19 16.6665 19Z" fill="white"/>
<path fill-rule="evenodd" clip-rule="evenodd" d="M6.6665 15.6C6.6665 12.2397 6.6665 10.5595 7.32046 9.27606C7.8957 8.14708 8.81359 7.2292 9.94256 6.65396C11.226 6 12.9062 6 16.2665 6H17.0665C20.4268 6 22.107 6 23.3904 6.65396C24.5194 7.2292 25.4373 8.14708 26.0125 9.27606C26.6665 10.5595 26.6665 12.2397 26.6665 15.6V16.4C26.6665 19.7603 26.6665 21.4405 26.0125 22.7239C25.4373 23.8529 24.5194 24.7708 23.3904 25.346C22.107 26 20.4268 26 17.0665 26H16.2665C12.9062 26 11.226 26 9.94256 25.346C8.81359 24.7708 7.8957 23.8529 7.32046 22.7239C6.6665 21.4405 6.6665 19.7603 6.6665 16.4V15.6ZM16.2665 8H17.0665C18.7797 8 19.9442 8.00156 20.8444 8.0751C21.7213 8.14674 22.1697 8.27659 22.4825 8.43597C23.2351 8.81947 23.847 9.43139 24.2305 10.184C24.3899 10.4968 24.5198 10.9452 24.5914 11.8221C24.6649 12.7223 24.6665 13.8868 24.6665 15.6V16.4C24.6665 18.1132 24.6649 19.2777 24.5914 20.1779C24.5198 21.0548 24.3899 21.5032 24.2305 21.816C23.847 22.5686 23.2351 23.1805 22.4825 23.564C22.1697 23.7234 21.7213 23.8533 20.8444 23.9249C19.9442 23.9984 18.7797 24 17.0665 24H16.2665C14.5533 24 13.3888 23.9984 12.4886 23.9249C11.6117 23.8533 11.1633 23.7234 10.8505 23.564C10.0979 23.1805 9.48597 22.5686 9.10248 21.816C8.9431 21.5032 8.81325 21.0548 8.74161 20.1779C8.66806 19.2777 8.6665 18.1132 8.6665 16.4V15.6C8.6665 13.8868 8.66806 12.7223 8.74161 11.8221C8.81325 10.9452 8.9431 10.4968 9.10248 10.184C9.48597 9.43139 10.0979 8.81947 10.8505 8.43597C11.1633 8.27659 11.6117 8.14674 12.4886 8.0751C13.3888 8.00156 14.5533 8 16.2665 8Z" fill="white"/>
<defs>
<radialGradient id="paint0_radial_721_67965" cx="0" cy="0" r="1" gradientUnits="userSpaceOnUse" gradientTransform="translate(12.6665 23) rotate(-55.3758) scale(25.5196)">
<stop stop-color="#B13589"/>
<stop offset="0.79309" stop-color="#C62F94"/>
<stop offset="1" stop-color="#8A3AC8"/>
</radialGradient>
<radialGradient id="paint1_radial_721_67965" cx="0" cy="0" r="1" gradientUnits="userSpaceOnUse" gradientTransform="translate(11.6665 31) rotate(-65.1363) scale(22.5942)">
<stop stop-color="#E0E8B7"/>
<stop offset="0.444662" stop-color="#FB8A2E"/>
<stop offset="0.71474" stop-color="#E2425C"/>
<stop offset="1" stop-color="#E2425C" stop-opacity="0"/>
</radialGradient>
<radialGradient id="paint2_radial_721_67965" cx="0" cy="0" r="1" gradientUnits="userSpaceOnUse" gradientTransform="translate(1.16651 3) rotate(-8.1301) scale(38.8909 8.31836)">
<stop offset="0.156701" stop-color="#406ADC"/>
<stop offset="0.467799" stop-color="#6A45BE"/>
<stop offset="1" stop-color="#6A45BE" stop-opacity="0"/>
</radialGradient>
</defs>
</svg>
