<svg width="33" height="32" viewBox="0 0 33 32" fill="none" xmlns="http://www.w3.org/2000/svg">
<path fill-rule="evenodd" clip-rule="evenodd" d="M16.3335 31C24.0655 31 30.3335 24.732 30.3335 17C30.3335 9.26801 24.0655 3 16.3335 3C8.60151 3 2.3335 9.26801 2.3335 17C2.3335 19.5109 2.99449 21.8674 4.15197 23.905L2.3335 31L9.64836 29.3038C11.6349 30.3854 13.9124 31 16.3335 31ZM16.3335 28.8462C22.8759 28.8462 28.1797 23.5425 28.1797 17C28.1797 10.4576 22.8759 5.15385 16.3335 5.15385C9.79105 5.15385 4.48734 10.4576 4.48734 17C4.48734 19.5261 5.278 21.8675 6.62534 23.7902L5.56427 27.7692L9.61343 26.7569C11.5229 28.0746 13.8381 28.8462 16.3335 28.8462Z" fill="#BFC8D0"/>
<path d="M28.3335 16C28.3335 22.6274 22.9609 28 16.3335 28C13.8057 28 11.4604 27.2184 9.52615 25.8837L5.42441 26.9091L6.49926 22.8784C5.13442 20.9307 4.3335 18.5589 4.3335 16C4.3335 9.37258 9.70608 4 16.3335 4C22.9609 4 28.3335 9.37258 28.3335 16Z" fill="url(#paint0_linear_721_67920)"/>
<path fill-rule="evenodd" clip-rule="evenodd" d="M16.3335 30C24.0655 30 30.3335 23.732 30.3335 16C30.3335 8.26801 24.0655 2 16.3335 2C8.60151 2 2.3335 8.26801 2.3335 16C2.3335 18.5109 2.99449 20.8674 4.15197 22.905L2.3335 30L9.64836 28.3038C11.6349 29.3854 13.9124 30 16.3335 30ZM16.3335 27.8462C22.8759 27.8462 28.1797 22.5425 28.1797 16C28.1797 9.45755 22.8759 4.15385 16.3335 4.15385C9.79105 4.15385 4.48734 9.45755 4.48734 16C4.48734 18.5261 5.278 20.8675 6.62534 22.7902L5.56427 26.7692L9.61343 25.7569C11.5229 27.0746 13.8381 27.8462 16.3335 27.8462Z" fill="white"/>
<path d="M12.8335 9.49989C12.5007 8.83131 11.99 8.8905 11.4742 8.8905C10.5523 8.8905 9.11475 9.99478 9.11475 12.05C9.11475 13.7343 9.85694 15.578 12.3579 18.3361C14.7715 20.9979 17.9429 22.3748 20.5757 22.3279C23.2085 22.2811 23.7502 20.0154 23.7502 19.2503C23.7502 18.9112 23.5397 18.742 23.3948 18.696C22.4976 18.2654 20.8428 17.4631 20.4663 17.3124C20.0898 17.1617 19.8932 17.3656 19.771 17.4765C19.4296 17.8018 18.7527 18.7608 18.521 18.9765C18.2893 19.1922 17.9438 19.083 17.8 19.0015C17.2709 18.7892 15.8364 18.1511 14.693 17.0426C13.2788 15.6718 13.1958 15.2001 12.9294 14.7803C12.7163 14.4444 12.8727 14.2384 12.9507 14.1483C13.2554 13.7968 13.6761 13.254 13.8648 12.9843C14.0534 12.7145 13.9037 12.305 13.8138 12.05C13.4273 10.953 13.0998 10.0347 12.8335 9.49989Z" fill="white"/>
<defs>
<linearGradient id="paint0_linear_721_67920" x1="26.8335" y1="7" x2="4.3335" y2="28" gradientUnits="userSpaceOnUse">
<stop stop-color="#5BD066"/>
<stop offset="1" stop-color="#27B43E"/>
</linearGradient>
</defs>
</svg>
